<svg viewBox="0 0 281.5851 395.5829" width="3559.116479433688px" height="5000px" xmlns="http://www.w3.org/2000/svg" xmlns:xlink="http://www.w3.org/1999/xlink" preserveAspectRatio="none"><defs></defs><style>.companyNameLrvG48bEX {fill:#f2b9ae;fill-opacity:1;}.icon1LrvG48bEX {fill:#edd7c3;fill-opacity:1;}.icon2LrvG48bEX {fill:#bc9b9b;fill-opacity:1;}.icon3LrvG48bEX {fill:#f2b9ae;fill-opacity:1;}</style><g opacity="1" transform="rotate(0 67.56070000000001 314.071)">
        <svg width="146.4637" height="81.5119" x="67.56070000000001" y="314.071" version="1.1" preserveAspectRatio="none" viewBox="1.4 -30 68.28 38">
          <g transform="matrix(1 0 0 1 0 0)" class="companyNameLrvG48bEX"><path transform="" stroke="none" d="M11.12 0.52L11.12 0.52L10.76 0.52Q6.92 0.52 4.16-2.32Q1.40-5.16 1.40-8.98Q1.40-12.80 4.20-15.58Q7-18.36 11.08-18.36Q15.16-18.36 18.04-15.28L18.04-15.28L18.04-13.24Q16.80-15.08 14.90-16.16Q13-17.24 10.92-17.24L10.92-17.24Q7.60-17.24 5.14-14.78Q2.68-12.32 2.68-8.92Q2.68-5.52 5.14-3.06Q7.60-0.60 10.92-0.60L10.92-0.60Q13-0.60 14.90-1.68Q16.80-2.76 18.04-4.64L18.04-4.64L18.04-2.56Q15.24 0.52 11.12 0.52Z"></path>
    <path transform="" stroke="none" d="M28.28-0.76L28.28-0.76L28.28 0.36Q25.44 0.36 23.44-1.54Q21.44-3.44 21.44-6.40L21.44-6.40L21.44-30L22.72-30L22.72-6.40Q22.72-3.96 24.34-2.36Q25.96-0.76 28.28-0.76Z"></path>
    <path transform="" stroke="none" d="M38.24 0.44Q34.40 0.44 31.64-2.42Q28.88-5.28 28.88-9.08Q28.88-12.88 31.68-15.66Q34.48-18.44 38.42-18.44Q42.36-18.44 45.14-15.66Q47.92-12.88 47.92-9.06Q47.92-5.24 45.20-2.40Q42.48 0.44 38.60 0.44L38.60 0.44L38.24 0.44ZM46.64-8.98Q46.64-12.36 44.22-14.84Q41.80-17.32 38.44-17.32Q35.08-17.32 32.62-14.82Q30.16-12.32 30.16-8.96Q30.16-5.60 32.62-3.14Q35.08-0.68 38.46-0.68Q41.84-0.68 44.24-3.14Q46.64-5.60 46.64-8.98Z"></path>
    <path transform="" stroke="none" d="M68.40-18L69.68-18L69.68 8L68.40 8L68.40-4.48Q67.28-2.20 65.04-0.88Q62.80 0.44 60.24 0.44L60.24 0.44Q56.32 0.44 53.52-2.34Q50.72-5.12 50.72-9Q50.72-12.88 53.52-15.66Q56.32-18.44 60.24-18.44L60.24-18.44Q62.80-18.44 65.14-17.08Q67.48-15.72 68.40-13.48L68.40-13.48L68.40-18ZM52.00-8.96Q52.00-5.60 54.46-3.14Q56.92-0.68 60.30-0.68Q63.68-0.68 66.08-3.14Q68.48-5.60 68.48-8.98Q68.48-12.36 66.06-14.84Q63.64-17.32 60.28-17.32Q56.92-17.32 54.46-14.82Q52.00-12.32 52.00-8.96Z"></path>
    </g>
        </svg>
      </g><g opacity="1" transform="rotate(0 0 0)">
        <svg width="281.5851" height="281.5848" x="0" y="0" version="1.1" preserveAspectRatio="none" viewBox="0 0 100 100">
          <g transform="matrix(1 0 0 1 0 0)" class="icon1LrvG48bEX"><g><path d="M50,4.036c0.297,0,0.538-0.241,0.538-0.538v-2.96C50.538,0.241,50.297,0,50,0c-0.298,0-0.539,0.241-0.539,0.538v2.96   C49.461,3.795,49.702,4.036,50,4.036z"></path><path d="M50,95.965c-0.298,0-0.539,0.24-0.539,0.538v2.959C49.461,99.76,49.702,100,50,100c0.297,0,0.538-0.24,0.538-0.538v-2.959   C50.538,96.206,50.297,95.965,50,95.965z"></path><path d="M99.462,49.463h-2.96c-0.296,0-0.538,0.241-0.538,0.538s0.242,0.539,0.538,0.539h2.96c0.297,0,0.538-0.241,0.538-0.539   S99.759,49.463,99.462,49.463z"></path><path d="M3.498,49.463H0.538C0.24,49.463,0,49.704,0,50.001s0.24,0.539,0.538,0.539h2.959c0.297,0,0.538-0.241,0.538-0.539   S3.795,49.463,3.498,49.463z"></path><path d="M73.365,9.791l1.456-2.576c0.146-0.259,0.056-0.586-0.202-0.734c-0.26-0.146-0.588-0.055-0.734,0.204l-1.456,2.576   c-0.147,0.258-0.056,0.586,0.203,0.733C72.89,10.14,73.219,10.049,73.365,9.791z"></path><path d="M27.368,90.006c-0.259-0.146-0.586-0.054-0.733,0.204l-1.458,2.576c-0.146,0.259-0.056,0.587,0.204,0.732   c0.258,0.147,0.587,0.056,0.733-0.202l1.457-2.576C27.718,90.482,27.627,90.153,27.368,90.006z"></path><path d="M93.316,73.886l-2.576-1.458c-0.259-0.146-0.588-0.055-0.733,0.204c-0.146,0.259-0.055,0.588,0.203,0.733l2.575,1.457   c0.259,0.146,0.588,0.056,0.734-0.203C93.665,74.361,93.574,74.033,93.316,73.886z"></path><path d="M9.993,27.37c0.147-0.26,0.055-0.587-0.203-0.734l-2.576-1.457c-0.259-0.147-0.587-0.056-0.733,0.203   c-0.146,0.259-0.055,0.588,0.204,0.734l2.576,1.457C9.519,27.72,9.847,27.628,9.993,27.37z"></path><path d="M90.45,27.055l2.559-1.49c0.256-0.149,0.342-0.478,0.193-0.736c-0.15-0.256-0.479-0.344-0.736-0.193l-2.557,1.49   c-0.258,0.149-0.344,0.479-0.194,0.735C89.865,27.117,90.193,27.205,90.45,27.055z"></path><path d="M9.549,72.946l-2.558,1.49c-0.257,0.149-0.344,0.479-0.193,0.734c0.149,0.258,0.479,0.345,0.735,0.194l2.557-1.49   c0.257-0.149,0.344-0.478,0.194-0.734C10.135,72.882,9.806,72.796,9.549,72.946z"></path><path d="M73.875,89.91c-0.149-0.256-0.479-0.343-0.736-0.194c-0.256,0.15-0.344,0.48-0.194,0.736l1.49,2.558   c0.149,0.257,0.479,0.343,0.735,0.193s0.345-0.479,0.195-0.735L73.875,89.91z"></path><path d="M26.86,10.285c0.257-0.149,0.343-0.479,0.194-0.735l-1.49-2.557c-0.149-0.258-0.479-0.344-0.735-0.193   c-0.257,0.149-0.344,0.478-0.194,0.735l1.491,2.557C26.274,10.348,26.603,10.435,26.86,10.285z"></path><path d="M50.393,47.135c-0.136-0.03-0.278-0.042-0.422-0.052c-0.19-1.885-0.305-3.002-0.305-3.002l-1.099,0.119   c0,0,0.128,1.122,0.345,3.014c-1.129,0.367-1.953,1.415-1.955,2.667c-0.003,1.479,1.136,2.683,2.584,2.806   c1.526,13.238,4.329,37.309,4.529,37.286c0.177-0.019-1.714-19.171-3.073-32.724c2.226,7.209,5.387,17.265,5.682,17.179   c0.36-0.104-3.686-15.792-5.35-22.184c0.765-0.503,1.271-1.367,1.273-2.352c0.001-0.669-0.24-1.276-0.629-1.761   c4.24-7.973,17.684-33.322,17.324-33.521C68.944,14.416,54.895,39.18,50.393,47.135z"></path></g></g>
        </svg>
      </g></svg>